<svg width="38" height="33" viewBox="0 0 38 33" xmlns="http://www.w3.org/2000/svg">
<path d="M35.265 4.3904C34.195 4.3904 33.3267 3.52374 33.3267 2.45207C33.3267 1.38041 34.195 0.512072 35.265 0.512072C36.3367 0.512072 37.205 1.38041 37.205 2.45207C37.205 3.52374 36.3367 4.3904 35.265 4.3904ZM32.6 11.9971C32.2534 12.8054 31.74 13.5571 31.0434 14.0971C30.6284 14.4204 30.1517 14.6621 29.6467 14.8021C29.1367 14.9471 28.6034 14.9971 28.075 14.9771C27.5 14.9537 26.9267 14.8404 26.4 14.6071C25.5934 14.2571 24.9317 13.6271 24.4617 12.8904C24.0734 12.2871 23.8084 11.6121 23.625 10.9204C23.4084 10.0921 23.3084 9.23874 23.2717 8.38374C23.2334 7.24874 23.275 6.10207 23.51 4.98707C23.6834 4.17707 23.9517 3.3804 24.375 2.66541C24.7567 2.0254 25.2667 1.45707 25.895 1.0554C26.475 0.678738 27.15 0.458738 27.8384 0.402072C28.5367 0.340405 29.2517 0.408739 29.915 0.645405C30.6984 0.918739 31.3784 1.45207 31.8767 2.11207C32.5117 2.93874 32.88 3.94041 33.0867 4.95541C33.335 6.19707 33.3717 7.47374 33.3 8.7354C33.2267 9.84707 33.0384 10.9671 32.6 11.9971ZM30.1634 6.38374C30.1117 5.70874 30.0267 5.02874 29.8117 4.38374C29.6767 3.97874 29.47 3.58207 29.1317 3.31374C28.84 3.0804 28.4484 3.00874 28.085 3.05541C27.79 3.09041 27.5134 3.2354 27.3134 3.45707C27.0134 3.77874 26.84 4.19541 26.715 4.61207C26.5167 5.28374 26.45 5.98207 26.41 6.67874C26.3717 7.46874 26.3767 8.2604 26.435 9.04874C26.485 9.68874 26.5684 10.3321 26.7767 10.9437C26.91 11.3304 27.0984 11.7121 27.4034 11.9937C27.63 12.2054 27.94 12.3154 28.2484 12.3187C28.5367 12.3271 28.8317 12.2604 29.07 12.0921C29.3334 11.9104 29.5217 11.6387 29.6617 11.3554C29.8467 10.9571 29.9517 10.5271 30.03 10.0971C30.1384 9.45707 30.185 8.80874 30.1984 8.15874C30.2184 7.56707 30.2017 6.9754 30.1634 6.38374ZM21.4117 13.2087C20.9234 13.8487 20.2467 14.3287 19.51 14.6387C18.6717 14.9771 17.745 15.0304 16.855 14.9454C15.9317 14.8571 15.0117 14.5421 14.2967 13.9371C13.5767 13.3337 13.085 12.4904 12.8034 11.5987C12.4534 10.4987 12.4 9.32707 12.4634 8.18207C12.5334 7.08207 12.77 5.98374 13.2434 4.98374C13.655 4.1004 14.2434 3.30041 14.98 2.66374C15.7 2.03707 16.545 1.56541 17.4384 1.24374C18.69 0.787072 20.0284 0.612072 21.3534 0.600405C21.4017 1.4154 21.4634 2.23041 21.5117 3.04374C21.52 3.08541 21.5 3.14207 21.4517 3.14207C20.4634 3.17207 19.4634 3.27874 18.5284 3.6204C17.815 3.87707 17.1484 4.29041 16.6417 4.8604C16.3334 5.20874 16.0917 5.61707 15.9284 6.05207C16.39 5.8604 16.885 5.77041 17.3834 5.74374C18.0867 5.72374 18.8017 5.77874 19.48 5.97707C20.2067 6.19541 20.9 6.57874 21.4117 7.14874C21.7084 7.48207 21.9467 7.86707 22.1034 8.28374C22.2584 8.6954 22.355 9.12707 22.4 9.56374C22.465 10.1404 22.44 10.7287 22.305 11.2937C22.1484 11.9871 21.8517 12.6504 21.4117 13.2087ZM18.9834 8.80874C18.765 8.5104 18.4217 8.33374 18.07 8.2504C17.5567 8.12874 17.0234 8.14374 16.5034 8.20707C16.1767 8.2504 15.8467 8.30707 15.5434 8.44374C15.5434 8.6254 15.525 8.8054 15.5234 8.98707C15.5334 9.31374 15.5417 9.64207 15.5817 9.96707C15.64 10.4871 15.75 11.0137 16.0017 11.4771C16.195 11.8371 16.5017 12.1487 16.8884 12.2921C17.2 12.4021 17.5384 12.4221 17.865 12.3771C18.285 12.3187 18.6534 12.0537 18.91 11.7237C19.2284 11.3087 19.3717 10.7821 19.3884 10.2654C19.3884 9.75707 19.2984 9.22207 18.9834 8.80874ZM8.03504 14.6304C7.45504 14.8254 6.84837 14.9271 6.24004 14.9704C5.03171 15.0654 3.81504 14.9254 2.64171 14.6287C2.19671 14.5154 1.75337 14.3887 1.33337 14.2004C1.52337 13.3654 1.72004 12.5337 1.91504 11.6987C1.91837 11.6471 1.98671 11.6354 2.02504 11.6571C2.38837 11.8071 2.75837 11.9371 3.13171 12.0554C3.54671 12.1971 3.97837 12.2804 4.41504 12.3204C4.91171 12.3637 5.41337 12.3804 5.91004 12.3287C6.29837 12.2871 6.68837 12.2054 7.03337 12.0171C7.44671 11.7887 7.76837 11.3837 7.86337 10.9171C7.93671 10.5571 7.92671 10.1721 7.80004 9.82541C7.64337 9.41541 7.29837 9.09874 6.90504 8.91874C6.38504 8.6754 5.80171 8.63207 5.23671 8.60374C4.78004 8.6004 4.32337 8.60374 3.86671 8.60207C3.81337 8.61207 3.76837 8.56207 3.77837 8.51207C3.77837 7.73374 3.77671 6.95707 3.78004 6.17874C3.77171 6.12874 3.81671 6.09207 3.86504 6.09874C4.35337 6.09541 4.84171 6.10041 5.33004 6.09541C5.83837 6.06874 6.37171 5.98707 6.79671 5.6854C7.04337 5.5054 7.23004 5.24041 7.30837 4.94541C7.37504 4.67707 7.39171 4.39374 7.33671 4.12374C7.24171 3.69207 6.90337 3.34374 6.50337 3.17874C6.00504 2.9654 5.44671 2.97874 4.91837 3.04707C4.38671 3.11207 3.87671 3.2954 3.39337 3.52374C3.19337 3.6204 2.99504 3.72041 2.80837 3.83874C2.76004 3.86541 2.71004 3.91374 2.65337 3.8854C2.60004 3.81374 2.57171 3.7304 2.53171 3.65207C2.20837 2.98707 1.88837 2.32041 1.56504 1.65541C2.03504 1.35874 2.53004 1.09707 3.05004 0.898738C3.94671 0.558738 4.90171 0.350405 5.86171 0.382072C6.72004 0.398739 7.59171 0.527072 8.37171 0.900405C9.09504 1.23541 9.71337 1.81707 10.0567 2.54207C10.345 3.14874 10.4567 3.8304 10.4334 4.5004C10.3684 5.5654 9.73837 6.5854 8.80671 7.10374C9.32004 7.32874 9.79671 7.65374 10.1617 8.08374C10.43 8.3954 10.6384 8.75707 10.7767 9.14541C10.9817 9.72874 11.0267 10.3571 10.9767 10.9704C10.91 11.8037 10.64 12.6421 10.0984 13.2887C9.57004 13.9387 8.82004 14.3704 8.03504 14.6304ZM7.28171 18.1721L7.26504 20.1037C7.26504 20.1037 3.13671 20.8471 3.13671 22.6021C3.13671 25.2071 14.12 25.3071 14.12 25.3071V22.3454L20.5234 27.6271L14.12 32.7937V30.0621C14.12 30.0621 2.11004 29.1371 0.638374 25.0354C-1.42996 19.2754 7.28171 18.1721 7.28171 18.1721ZM31.245 22.4171C31.245 21.0471 27.6717 19.9171 27.6717 19.9171L27.6784 18.1721C27.6784 18.1721 36.46 19.3004 33.515 25.2654C31.4017 29.5437 22.1734 29.8554 22.1734 29.8554V25.2154C22.1734 25.2154 31.245 25.0271 31.245 22.4171Z" fill-opacity="0.6"/>
</svg>
